<svg xmlns="http://www.w3.org/2000/svg" xmlns:xlink="http://www.w3.org/1999/xlink" fill="none" version="1.1" width="19.490385055541992" height="16" viewBox="0 0 19.490385055541992 16"><g transform="matrix(1,0,0,-1,0,32)"><path d="M7,32Q8.09375,32,9,31.4688Q9.90625,30.9375,10.4688,30Q11,29.0625,11,28Q11,26.9375,10.4688,26Q9.90625,25.0625,9,24.53125Q8.09375,24,7,24Q5.90625,24,5,24.53125Q4.09375,25.0625,3.53125,26Q3,26.9375,3,28Q3,29.0625,3.53125,30Q4.09375,30.9375,5,31.4688Q5.90625,32,7,32ZM5.5625,22.5L8.4375,22.5L5.5625,22.5L8.4375,22.5Q8.96875,22.5,9.5,22.40625Q9.46875,21.46875,10.1875,21Q9.78125,20.75,9.59375,20.28125Q9.40625,19.84375,9.5625,19.34375Q9.75,18.71875,10.0625,18.15625Q10.4062,17.59375,10.8438,17.125Q11.2188,16.71875,11.7188,16.6875Q12.1875,16.625,12.625,16.84375L12.625,16.8125Q12.625,16.375,12.875,16L0.9375,16Q0.53125,16,0.28125,16.28125Q0,16.53125,0,16.9375Q0.0625,19.28125,1.625,20.875Q3.21875,22.4375,5.5625,22.5ZM13.625,25.1875Q13.6562,25.53125,13.9688,25.65625Q14.4688,25.75,15,25.75Q15.5312,25.75,16.0312,25.65625Q16.3438,25.53125,16.375,25.1875L16.375,24.21875Q16.75,24.0625,17.0625,23.8125L17.8438,24.28125Q18.1562,24.4375,18.4375,24.1875Q18.7812,23.8125,19.0625,23.34375Q19.3125,22.875,19.4688,22.375Q19.5625,22.03125,19.25,21.84375L18.4688,21.375Q18.5,21.1875,18.5,21Q18.5,20.8125,18.4688,20.625L19.25,20.1875Q19.5625,19.96875,19.4688,19.625Q19.3125,19.125,19.0625,18.65625Q18.7812,18.1875,18.4375,17.8125Q18.1562,17.5625,17.8438,17.75L17.0625,18.1875Q16.75,17.9375,16.375,17.78125L16.375,16.84375Q16.3438,16.46875,16.0312,16.375Q15.5312,16.25,15,16.25Q14.4688,16.25,13.9688,16.375Q13.6562,16.46875,13.625,16.84375L13.625,17.78125Q13.25,17.9375,12.9375,18.1875L12.1562,17.75Q11.8438,17.5625,11.5625,17.8125Q11.2188,18.1875,10.9375,18.65625Q10.6875,19.125,10.5312,19.625Q10.4375,19.96875,10.75,20.1875L11.5312,20.625Q11.5,20.8125,11.5,21Q11.5,21.1875,11.5312,21.40625L10.75,21.84375Q10.4375,22.03125,10.5312,22.375Q10.6562,22.875,10.9375,23.34375Q11.2188,23.8125,11.5625,24.1875Q11.8125,24.4375,12.1562,24.28125L12.9062,23.8125Q13.25,24.0625,13.625,24.21875L13.625,25.1875ZM16.5,21Q16.5,21.875,15.7812,22.375Q15,22.78125,14.2188,22.375Q13.5,21.875,13.5,21Q13.5,20.125,14.2188,19.65625Q15,19.21875,15.7812,19.65625Q16.5,20.125,16.5,21Z" fill="currentColor"fill-opacity="1" style="mix-blend-mode:passthrough"/></g></svg>