<svg xmlns="http://www.w3.org/2000/svg" xmlns:xlink="http://www.w3.org/1999/xlink" fill="currentColor" version="1.1" width="19.5625" height="16" viewBox="0 0 19.5625 16"><defs><clipPath id="master_svg0_29_2277"><rect x="0" y="0" width="19.5625" height="16" rx="0"/></clipPath></defs><g clip-path="url(#master_svg0_29_2277)"><g transform="matrix(1,0,0,-1,0,32.6875)"><g><path d="M7,32.34375Q8.09375,32.34375,9,31.81255Q9.90625,31.28125,10.4688,30.34375Q11,29.40625,11,28.34375Q11,27.28125,10.4688,26.34375Q9.90625,25.40625,9,24.875Q8.09375,24.34375,7,24.34375Q5.90625,24.34375,5,24.875Q4.09375,25.40625,3.53125,26.34375Q3,27.28125,3,28.34375Q3,29.40625,3.53125,30.34375Q4.09375,31.28125,5,31.81255Q5.90625,32.34375,7,32.34375ZM5.5625,22.84375L8.4375,22.84375L5.5625,22.84375L8.4375,22.84375Q8.96875,22.84375,9.5,22.75Q9.46875,21.8125,10.1875,21.34375Q9.78125,21.09375,9.59375,20.625Q9.40625,20.1875,9.5625,19.6875Q9.75,19.0625,10.0625,18.5Q10.4062,17.9375,10.8438,17.46875Q11.2188,17.0625,11.7188,17.03125Q12.1875,16.96875,12.625,17.1875L12.625,17.15625Q12.625,16.71875,12.875,16.34375L0.9375,16.34375Q0.53125,16.34375,0.28125,16.625Q0,16.875,0,17.28125Q0.0625,19.625,1.625,21.21875Q3.21875,22.78125,5.5625,22.84375ZM13.625,25.53125Q13.6562,25.875,13.9688,26Q14.4688,26.09375,15,26.09375Q15.5312,26.09375,16.0312,26Q16.3438,25.875,16.375,25.53125L16.375,24.5625Q16.75,24.40625,17.0625,24.15625L17.8438,24.625Q18.1562,24.78125,18.4375,24.53125Q18.7812,24.15625,19.0625,23.6875Q19.3125,23.21875,19.4688,22.71875Q19.5625,22.375,19.25,22.1875L18.4688,21.71875Q18.5,21.53125,18.5,21.34375Q18.5,21.15625,18.4688,20.96875L19.25,20.53125Q19.5625,20.3125,19.4688,19.96875Q19.3125,19.46875,19.0625,19Q18.7812,18.53125,18.4375,18.15625Q18.1562,17.90625,17.8438,18.09375L17.0625,18.53125Q16.75,18.28125,16.375,18.125L16.375,17.1875Q16.3438,16.8125,16.0312,16.71875Q15.5312,16.59375,15,16.59375Q14.4688,16.59375,13.9688,16.71875Q13.6562,16.8125,13.625,17.1875L13.625,18.125Q13.25,18.28125,12.9375,18.53125L12.1562,18.09375Q11.8438,17.90625,11.5625,18.15625Q11.2188,18.53125,10.9375,19Q10.6875,19.46875,10.5312,19.96875Q10.4375,20.3125,10.75,20.53125L11.5312,20.96875Q11.5,21.15625,11.5,21.34375Q11.5,21.53125,11.5312,21.75L10.75,22.1875Q10.4375,22.375,10.5312,22.71875Q10.6562,23.21875,10.9375,23.6875Q11.2188,24.15625,11.5625,24.53125Q11.8125,24.78125,12.1562,24.625L12.9062,24.15625Q13.25,24.40625,13.625,24.5625L13.625,25.53125ZM16.5,21.34375Q16.5,22.21875,15.7812,22.71875Q15,23.125,14.2188,22.71875Q13.5,22.21875,13.5,21.34375Q13.5,20.46875,14.2188,20Q15,19.5625,15.7812,20Q16.5,20.46875,16.5,21.34375Z" fill="currentColor" fill-opacity="1" style="mix-blend-mode:passthrough"/></g></g></g></svg>