<svg xmlns="http://www.w3.org/2000/svg" xmlns:xlink="http://www.w3.org/1999/xlink" fill="none" version="1.1" width="15" height="16" viewBox="0 0 15 16"><defs><clipPath id="master_svg0_29_2266"><rect x="0" y="0" width="15" height="16" rx="0"/></clipPath></defs><g clip-path="url(#master_svg0_29_2266)"><g transform="matrix(1,0,0,-1,0,32.6875)"><g><path d="M2,32.34375Q1.15625,32.31255,0.59375,31.74995Q0.03125,31.18755,0,30.34375L0,18.34375Q0.03125,17.5,0.59375,16.9375Q1.15625,16.375,2,16.34375L11,16.34375Q11.8438,16.375,12.4062,16.9375Q12.9688,17.5,13,18.34375L13,30.34375Q12.9688,31.18755,12.4062,31.74995Q11.8438,32.31255,11,32.34375L2,32.34375ZM5.5,23.34375L7.5,23.34375L5.5,23.34375L7.5,23.34375Q8.5625,23.3125,9.28125,22.625Q9.96875,21.90625,10,20.84375Q9.96875,20.375,9.5,20.34375L3.5,20.34375Q3.03125,20.375,3,20.84375Q3.03125,21.90625,3.71875,22.625Q4.4375,23.3125,5.5,23.34375ZM4.5,26.34375Q4.53125,27.46875,5.5,28.06255Q6.5,28.62495,7.5,28.06255Q8.46875,27.46875,8.5,26.34375Q8.46875,25.21875,7.5,24.625Q6.5,24.0625,5.5,24.625Q4.53125,25.21875,4.5,26.34375ZM15,29.84375Q14.9688,30.31255,14.5,30.34375Q14.0312,30.31255,14,29.84375L14,27.84375Q14.0312,27.37495,14.5,27.34375Q14.9688,27.37495,15,27.84375L15,29.84375ZM14.5,26.34375Q14.0312,26.3125,14,25.84375L14,23.84375Q14.0312,23.375,14.5,23.34375Q14.9688,23.375,15,23.84375L15,25.84375Q14.9688,26.3125,14.5,26.34375ZM15,21.84375Q14.9688,22.3125,14.5,22.34375Q14.0312,22.3125,14,21.84375L14,19.84375Q14.0312,19.375,14.5,19.34375Q14.9688,19.375,15,19.84375L15,21.84375Z" fill="currentColor" fill-opacity="1" style="mix-blend-mode:passthrough"/></g></g></g></svg>