<svg xmlns="http://www.w3.org/2000/svg" xmlns:xlink="http://www.w3.org/1999/xlink" fill="none" version="1.1" width="18.002403259277344" height="16.003124237060547" viewBox="0 0 18.002403259277344 16.003124237060547"><g transform="matrix(1,0,0,-1,0,32.006248474121094)"><path d="M18,24.003124237060547Q17.9688,23.596874237060547,17.6875,23.315624237060547Q17.4062,23.034374237060547,17,23.003124237060547L16,23.003124237060547L16.0312,18.003124237060547Q16,17.878124237060547,16,17.753124237060547L16,17.253124237060547Q16,16.721874237060547,15.625,16.378124237060547Q15.2812,16.003124237060547,14.75,16.003124237060547L14.25,16.003124237060547Q14.1875,16.003124237060547,14.1562,16.003124237060547Q14.0938,16.003124237060547,14.0312,16.003124237060547L13,16.003124237060547L12.25,16.003124237060547Q11.7188,16.003124237060547,11.375,16.378124237060547Q11,16.721874237060547,11,17.253124237060547L11,18.003124237060547L11,20.003124237060547Q11,20.440624237060547,10.7188,20.721874237060547Q10.4375,21.003124237060547,10,21.003124237060547L8,21.003124237060547Q7.5625,21.003124237060547,7.28125,20.721874237060547Q7,20.440624237060547,7,20.003124237060547L7,18.003124237060547L7,17.253124237060547Q7,16.721874237060547,6.625,16.378124237060547Q6.28125,16.003124237060547,5.75,16.003124237060547L5,16.003124237060547L4,16.003124237060547Q3.96875,16.003124237060547,3.9375,16.003124237060547Q3.90625,16.003124237060547,3.875,16.003124237060547Q3.8125,16.003124237060547,3.75,16.003124237060547L3.25,16.003124237060547Q2.71875,16.003124237060547,2.375,16.378124237060547Q2,16.721874237060547,2,17.253124237060547L2,20.753124237060547Q2,20.784374237060547,2,20.846874237060547L2,23.003124237060547L1,23.003124237060547Q0.5625,23.034374237060547,0.28125,23.315624237060547Q0,23.596874237060547,0,24.034374237060547Q0,24.440624237060547,0.3125,24.784374237060547L8.3125,31.753124237060547Q8.65625,32.034324237060545,9,32.00312423706055Q9.375,32.00312423706055,9.65625,31.784324237060545L17.6562,24.753124237060547Q18.0312,24.440624237060547,18,24.003124237060547Z" fill="currentColor" fill-opacity="1" style="mix-blend-mode:passthrough"/></g></svg>