<svg xmlns="http://www.w3.org/2000/svg" xmlns:xlink="http://www.w3.org/1999/xlink" fill="none" version="1.1" width="12" height="16" viewBox="0 0 14 16"><g><path d="M7.60711,10.8512C9.9513,11.6975,11.6772,13.6511,12,16L0,16C0.322853,13.6511,2.0488,11.6975,4.39295,10.8512L5,14.4L7.60711,10.8512ZM10.2909,0L10.2909,4.8C10.2909,7.45096,7.9221,9.6,5,9.6C2.0779,9.6,0.70907,7.45096,0.70907,4.8L0.70907,0L5.00001,0L10.2909,0ZM8.5273,4.8L2.47272,4.8C2.47272,6.56728,4.05194,8,6,8C7.94812,8,8.5273,6.56728,8.5273,4.8Z" fill="currentColor" fill-opacity="1" style="mix-blend-mode:passthrough"/></g></svg>