<svg xmlns="http://www.w3.org/2000/svg" xmlns:xlink="http://www.w3.org/1999/xlink" fill="none" version="1.1" width="18" height="14" viewBox="0 0 18 14"><g transform="matrix(1,0,0,-1,0,28)"><path d="M0,26.5Q0.03125,27.125,0.4375,27.5625Q0.875,27.9688,1.5,28L4.5,28Q5.125,27.9688,5.5625,27.5625Q5.96875,27.125,6,26.5L6,26L12,26L12,26.5Q12.0312,27.125,12.4375,27.5625Q12.875,27.9688,13.5,28L16.5,28Q17.125,27.9688,17.5625,27.5625Q17.9688,27.125,18,26.5L18,23.5Q17.9688,22.875,17.5625,22.4375Q17.125,22.03125,16.5,22L13.5,22Q12.875,22.03125,12.4375,22.4375Q12.0312,22.875,12,23.5L12,24L6,24L6,23.5Q6,23.40625,6,23.34375L8.5,20L11.5,20Q12.125,19.96875,12.5625,19.5625Q12.9688,19.125,13,18.5L13,15.5Q12.9688,14.875,12.5625,14.4375Q12.125,14.03125,11.5,14L8.5,14Q7.875,14.03125,7.4375,14.4375Q7.03125,14.875,7,15.5L7,18.5Q7,18.59375,7,18.65625L4.5,22L1.5,22Q0.875,22.03125,0.4375,22.4375Q0.03125,22.875,0,23.5L0,26.5Z" fill="currentColor" fill-opacity="1" style="mix-blend-mode:passthrough"/></g></svg>